<svg id="Layer_1" data-name="Layer 1" xmlns="http://www.w3.org/2000/svg" width="117.6cm" height="99.99cm" viewBox="0 0 3333.54 2834.31"><defs><style>.cls-1{fill:#222;}.cls-2{fill:#fdfdfd;}.cls-3{fill:#f9ea1f;}.cls-4{fill:#51a44a;}.cls-5{fill:#00aaea;}.cls-6{fill:#007cac;}.cls-7{fill:#feef20;}.cls-8{fill:#f8e91f;}.cls-9{fill:#020200;}.cls-10{fill:#010100;}.cls-11{fill:#3b3806;}.cls-12{fill:#c4b817;}.cls-13{fill:#a69c13;}.cls-14{fill:#a09711;}.cls-15{fill:#f7e81f;}.cls-16{fill:#f7e91f;}.cls-17{fill:#f5e71e;}.cls-18{fill:#f5e61e;}</style></defs><path class="cls-1" d="M2716.18.16c-.07,2.91-.18,5.81-.18,8.71q0,650.44-.08,1300.87c0,8.66,1.08,17.42-1.24,26-2.81-2.3-2.82-5.59-3-8.77-.24-4.36-.12-8.73-.12-13.09q0-645.28,0-1290.56c0-20.09,1.36-18.51-18.31-18.51q-1023.46,0-2046.93,0c-20.1,0-18.77-1.62-18.77,19q0,646.16,0,1292.31c0,6,1,12.2-1.61,18a1.66,1.66,0,0,1-2.77.59q0-13.5,0-27V8c0-2.61-.12-5.22-.18-7.84Z" transform="translate(-1.89 -0.16)"/><path class="cls-1" d="M3333.63,2742.11c1.22.51,2.16,1.79.61,2.21-2.43.66-5.12.41-7.7.41q-226.23,0-452.47-.15c-7.58,0-10.24,1.39-10,9.67.66,26.73.35,53.48.41,80.23H474.65c.06-27.91-.17-55.82.38-83.72.15-7.54-4.17-6-8.26-6q-218.82,0-437.65,0c-8.1,0-16.21-.16-24.31-.32-.2,0-.63-1-.52-1.36s.77-.64,1.19-1a92.29,92.29,0,0,1,15.59-1.27q218.9.06,437.79,0c19.89,0,20.37.5,20.39,20.61,0,17.74,0,35.48,0,53.22,0,15.15,0,15.15,15.58,15.17,1.45,0,2.9,0,4.36,0q1170.35,0,2340.71,0c21.84,0,19.8,1.92,19.92-19.52.1-18.61-.16-37.23.11-55.84.16-11.19,2.32-13.19,13.32-13.57,3.2-.11,6.4-.05,9.6-.05q216.7,0,433.43,0A92.28,92.28,0,0,1,3333.63,2742.11Z" transform="translate(-1.89 -0.16)"/><path d="M624.42,1335.72c.13-7.83.37-15.67.38-23.5q0-649.58,0-1299.15c0-11.15,0-11.16,11.36-11.16H2702.93c11.35,0,11.36,0,11.35,11.16q0,657.87-.06,1315.73c0,2.3.3,4.61.46,6.92a1546.65,1546.65,0,0,1-16.83,176.59c-15,98.32-48.79,189.57-100.44,274.37a16.47,16.47,0,0,0-1,2.4c-15.66,23.37-30.41,47.33-47,70.14a1258.73,1258.73,0,0,1-86.4,105.94c-39,43-80.88,83-124.25,121.46a1723.63,1723.63,0,0,1-214.05,161.76c-55,35.28-110.92,69-168.67,99.77-59.43,31.63-119.81,61-184,81.89-27.2,8.87-54.93,15.58-83.38,19-5.46,1.52-11.22-.56-16.65,1.33a4.38,4.38,0,0,0-5,0c-5.43-1.91-11.19.19-16.65-1.34-33.72-2.93-65.8-12.59-97.66-23.39-51-17.28-99.54-40.06-147.22-64.63-30-15.44-59.4-32-88.46-49.25-26.7-15.82-53.11-32.07-79.5-48.37q-44.28-27.36-86.76-57.33c-22.27-15.68-44.76-31-65.72-48.53-17.78-14.82-36.58-28.42-54.13-43.5-25.25-21.71-50.48-43.53-74.44-66.64-31.57-30.45-62.93-61.15-91.86-94.28-19.13-21.89-38.13-43.9-55.86-66.87A983.76,983.76,0,0,1,741.9,1788c-23-38.74-43.41-78.86-60-120.8-10.56-26.6-18.68-53.94-25.82-81.67-5.89-22.85-10.27-46-15.07-69-4.65-22.29-6-45.29-8.51-68-1.74-15.62-3-31.28-4.52-46.92-1.45-2.93.23-6.33-1.35-9.25.94-15.61-2.12-31-2.14-46.59A18,18,0,0,1,624.42,1335.72Z" transform="translate(-1.89 -0.16)"/><path d="M3333.63,2742.11c-3.15,2.31-6.76,1.2-10.14,1.2q-225,.09-450-.15c-8.88,0-11.37,2.28-11.13,11.14.63,23.55,0,47.12.34,70.68.08,6.13-1.84,8.6-7.92,7.79a39.5,39.5,0,0,0-5.22,0q-1180,0-2360,0c-14.78,0-12.93,1.82-13-13-.09-22.1-.37-44.21.15-66.31.19-8-2.14-10.25-10.22-10.24q-225.45.36-450.89.12c-3.38,0-7,1.12-10.13-1.21q53.86-42.57,107.75-85.12,60.51-47.58,121.24-94.9c8.37-6.52-.91-8-3.17-9.79C155.5,2492.52,79.49,2433,1.89,2372.22h8.92q317,0,634-.18c7.49,0,9.8,1.45,9.6,9.39-.61,24.41-.05,48.85-.36,73.28-.07,5.65,1.41,8,7.16,7.1a27.43,27.43,0,0,1,4.35,0H2673.75c11.21,0,11.21,0,11.21-11.6,0-22.39.39-44.79-.2-67.17-.22-8.39,1.38-11.07,10.62-11.05q236.74.54,473.5.24c3.18,0,6.37-.23,9.55-.35q74.06.18,148.11.46c2.93,0,6.36-1.67,8.89,1.42q-75.3,59-150.58,117.93c-28,22-56,44-84.79,66.6,17.48,13.76,34.71,27.35,52,40.89q90.27,70.8,180.54,141.6A6.87,6.87,0,0,1,3333.63,2742.11Z" transform="translate(-1.89 -0.16)"/><path class="cls-2" d="M1650.4,2449.08l16.65,1.33C1661.5,2450,1655.75,2452,1650.4,2449.08Z" transform="translate(-1.89 -0.16)"/><path class="cls-2" d="M1672.05,2450.42l16.65-1.34C1683.35,2452,1677.6,2450,1672.05,2450.42Z" transform="translate(-1.89 -0.16)"/><path class="cls-2" d="M624.42,1335.72q0,5,0,10c-2.79-3.4-1.12-7.33-1.33-11A6.4,6.4,0,0,0,624.42,1335.72Z" transform="translate(-1.89 -0.16)"/><path class="cls-2" d="M626.58,1392.34a18.65,18.65,0,0,1,1.35,9.25C625.33,1398.82,626.72,1395.47,626.58,1392.34Z" transform="translate(-1.89 -0.16)"/><path class="cls-3" d="M652.7,1097.18v-8.54q0-524-.24-1048c0-9.51,2.88-11,11.52-11q1005.6.3,2011.2,0c8.77,0,11.46,1.75,11.45,11.13q-.4,523.56-.23,1047.12v9.47c-3.83.54-4.8-2.5-6.38-4.15C2564.23,971.57,2448.14,850.27,2333.12,728c-20.94-22.26-43.47-32-74-31.94q-597,1-1194,.48c-19.39,0-35.18,7-48.56,21.15-38.46,40.79-77.39,81.12-116,121.72q-121.07,127.2-242,254.54a41,41,0,0,0-3.44,4.84Z" transform="translate(-1.89 -0.16)"/><path class="cls-4" d="M2662.1,1116.6h-18.23q-58,0-116,0c-15.58,0-13.65,1.38-13.72-13.29-.07-15.13-.26-30.26.11-45.37.14-5.81-1.83-7.31-7.43-7.3q-151.31.21-302.61,0c-5.94,0-8.09,1.42-7.93,7.7.42,16.57-.1,33.16.26,49.73.14,6.19-1.26,8.78-8.1,8.74q-61.92-.37-123.83.08c-6.35,0-7.84-2.31-7.73-8.17.32-16.86-.07-33.74.22-50.6.09-5.39-1.73-6.94-7-6.93q-152.17.18-304.35,0c-5.7,0-6.68,2.29-6.61,7.27.24,16.86-.12,33.74.21,50.6.12,5.86-1.3,8.07-7.65,8q-62.35-.33-124.7.13c-5.83,0-7.4-1.82-7.29-7.44.32-16.87-.07-33.74.22-50.61.1-5.29-1.42-7-6.85-7q-152.17.21-304.35,0c-5.54,0-6.83,2-6.76,7.11.26,16.86-.12,33.74.22,50.6.11,5.77-1.73,7.35-7.42,7.31q-62.36-.4-124.71-.11c-6.49,0-7.64-2.45-7.53-8.16.31-16-.3-32,.28-48,.28-7.64-1.87-9.91-9.66-9.85-44.18.37-88.36.18-132.55.18-55.52,0-111,.13-166.56-.16-7.19,0-9.51,1.84-9.27,9.16.52,16.27,0,32.57.25,48.85.08,5.35-1.11,7.85-7.19,7.83-45.05-.21-90.11-.12-135.16-.14-1.06,0-2.12-.21-5.07-.53,9.28-10,17.39-18.81,25.67-27.51Q854.48,930,1005.71,771.2c11.62-12.2,23.35-24.29,35-36.44,5.75-6,12.59-8.66,21-8.66q183.52,0,367-.21,399.84-.07,799.69,0c16,0,31.93.57,47.88.15,9.89-.26,17.31,3.61,23.84,10.46,22.27,23.34,44.67,46.54,66.91,69.9q113.61,119.36,227.13,238.8C2616.25,1068.32,2638.21,1091.46,2662.1,1116.6Z" transform="translate(-1.89 -0.16)"/><path class="cls-2" d="M1670.46,1263.74q502.78,0,1005.58-.25c9.13,0,10.65,2.55,10.57,10.93-.26,29.08-.33,58.16-2.07,87.2-.21,3.55.9,8-5.88,5.47-43.65-16.54-85.51-8.75-126.19,10.37-18.06,8.49-35.52,18.29-53.36,27.27-45.5,22.92-90.07,18.6-134.05-4.68-22.23-11.76-44.19-23.87-68.06-32.51-40.54-14.68-79.55-10.73-118.43,5.51-17.44,7.28-34,16.3-50.35,25.54-51.67,29.12-102.71,27.36-153.55-1.92-23.38-13.46-47.49-25-73.55-32.81-33.59-10-65.73-5.67-97.87,5.94-24.14,8.72-45.45,23-68.69,33.44-26.41,11.81-53.48,21.33-83.21,15.53-24.11-4.71-46.57-14-67.79-26.13-29.14-16.72-59.58-29.84-93.2-34.09-20.54-2.6-40.32,1.71-59.88,7.65-23.19,7-44.19,18.63-65.42,30-26.52,14.14-54.23,25.94-85,24-29.15-1.85-55.51-13.49-80.63-27.8-29.18-16.64-59.64-29.88-93.28-33.87-24.15-2.86-47.12,3.32-69.74,11.19-22,7.67-41.62,20.25-62.45,30.3-28.17,13.58-57.09,24.81-89.39,18.88-24.46-4.49-47.16-13.94-68.61-26.29-29.12-16.77-59.59-29.81-93.18-34-20.83-2.61-41,1.49-60.67,8.18-5.8,2-7.34,1-7.65-5.13-1.51-29.64-1.71-59.29-1.9-89,0-7.1,1.45-9.08,8.87-9.06q191,.39,382,.19Z" transform="translate(-1.89 -0.16)"/><path class="cls-5" d="M710,1387.16c31.94.88,60.32,13,87.55,28.38,25.37,14.33,51.71,26.09,80.49,31.53,34.88,6.58,67.42-2.17,98.77-16.46,15-6.84,29.21-15.41,44-22.67,27.09-13.26,55-23.94,86-19.94,26.83,3.45,51.22,14.24,74.51,27.52,25.32,14.44,51.71,26.1,80.49,31.55,34.9,6.62,67.38-2.34,98.8-16.44,12.67-5.68,24.69-12.79,37.07-19.14,28.9-14.82,58.52-27.5,92-23.54,27.19,3.21,51.86,14.13,75.37,27.62,25.3,14.53,51.75,26,80.52,31.49,35.21,6.69,67.78-2.81,99.64-16.71,16.25-7.09,31.36-16.32,47-24.56,48.86-25.78,96.83-23.08,144.42,3.17,22.08,12.17,44.3,23.78,68.36,32,39,13.3,76.44,9,113.65-6.15,19.11-7.78,37-18,55-27.92,54.9-30.11,107.54-22.34,159.11,8.65a273.63,273.63,0,0,0,65.21,28.17c36.35,10.53,71,4.51,105.3-9.23,23.48-9.42,44.46-23.73,67.67-33.69,33.25-14.28,66.75-18.55,101.46-5.59,6.41,2.39,9.79,4.59,8.9,12.67-2.88,26.25-5.36,52.55-9.05,78.71-.44,3.14-.57,6.68-5.61,5.15-44.58-13.6-85.28-.7-124.74,19-21,10.46-41.24,22.3-63.49,30.35-37.39,13.52-72.44,6.29-106.9-9.75-21.81-10.15-42.26-22.93-64.61-32.18-47.14-19.52-92.74-15.17-137.88,6.14-12.59,6-24.8,12.55-36.82,19.52-53.94,31.3-107.48,30-160.8-1.63-23-13.66-47.13-24.61-73.06-31.84-31.82-8.87-62.45-5.14-92.87,5.86-19.16,6.92-37,16.4-54.83,26.19-22.25,12.22-45.59,22-71.08,24.48-33.57,3.29-63.23-9.52-91.81-24.93-22.74-12.26-45.68-23.61-70.61-31-36.41-10.78-71-4.86-105.18,8.94-17,6.86-33,15.6-48.87,24.67-53.61,30.7-106.53,28.76-159.2-2.46-23-13.62-47.11-24.56-73-31.77-31.83-8.86-62.44-5.13-92.85,5.86-19.19,6.94-36.95,16.68-54.9,26.21-28.67,15.21-58.41,28.06-91.92,24.38-27.8-3-53-14.32-77.12-28.06-30.23-17.2-61.78-30.57-97-33.39-14.66-1.18-28.94,1.12-43,5-4.88,1.35-6.79.47-7.45-4.6-3.57-27-6.68-54.15-9-81.34-.44-5.07.94-7.33,5.58-8.83C678.53,1391.6,693.72,1386.77,710,1387.16Z" transform="translate(-1.89 -0.16)"/><path class="cls-2" d="M708.75,1614.37c-14.41,0-14.19-.06-18.31-14.34-6.74-23.37-11.41-47.21-16.87-70.87-1.76-7.6,1.89-8.57,7.34-10.12,33.4-9.49,64.17-.42,94.3,13.09,20.32,9.11,38.83,21.81,59.6,30.07,20.58,8.18,41.68,14.73,63.87,15.43,24.4.75,47.44-6.43,70-15.21,21.12-8.21,39.8-21.24,60.46-30.33,27-11.91,54.66-21.39,84.92-15a210.28,210.28,0,0,1,61.41,23.38c25.71,14.74,52.33,27.19,81.38,33.88,36.33,8.36,70.19-.53,102.9-15.38,18.93-8.59,37.17-18.7,55.71-28.13,49.56-25.21,97-17,143.21,9.23,22.19,12.61,45,23.53,69.45,31.13,40.42,12.55,78.29,4.26,115.63-12,18.34-8,34.94-19.3,53.26-27.28,27.43-11.94,55.28-21.27,85.83-14.55,22.76,5,44.07,13.84,64.25,25.4,24.72,14.16,50.52,25.53,78.46,31.79,36.1,8.09,69.6-1,102-15.72,19.74-9,38.56-20,58.25-29.07,16.31-7.54,33.54-12.8,51.61-14.35,22.6-1.94,43.49,4.92,64.1,13,23.51,9.18,44.15,24.15,67.59,33.52,20.29,8.12,41.07,14.64,62.94,15.66,25,1.18,48.62-6.21,71.72-15.18,20.84-8.09,39.33-20.86,59.64-30s40.81-16.41,63.25-17.27c11.76-.45,23,2.07,34.32,4.79,4,1,5.65,2.06,4.72,6.93a815.71,815.71,0,0,1-19.57,81.81c-.79,2.64-.55,6.42-5.62,6.08-43.26-2.9-80.93,13.57-117.41,34.2-21.8,12.32-44.73,22-69.51,26.28-29.36,5.1-56.2-4.27-82.35-16-20.83-9.38-40.12-21.79-61.22-30.77-47.36-20.17-93.73-17.61-139.49,4.51-18.49,8.93-36.58,18.71-54.91,28-50.65,25.6-98.86,16.47-145.66-10.58a355.87,355.87,0,0,0-59-27.3c-39.28-14-77.44-9.8-115.14,5.9a339.08,339.08,0,0,0-44.18,22.19c-54.88,33-109.67,32.52-164.46-.15a336.77,336.77,0,0,0-59.7-27.88c-39.57-14.09-78-9.84-116,6.06a308.42,308.42,0,0,0-41.85,20.94c-56.84,34.7-113.37,33.61-169.77-1-17.6-10.8-36.44-18.94-55.85-25.9-39.82-14.27-78.51-9.93-116.79,6.14-17.94,7.53-34.78,17.09-51.77,26.38q-73.92,40.43-147.45-.42c-23.54-13-47.06-26.16-73.14-33.72C739.83,1617.18,724.59,1613.84,708.75,1614.37Z" transform="translate(-1.89 -0.16)"/><path class="cls-5" d="M2435.81,1804.92c-28.15-1.3-54.57-11.53-79.69-25.2-20.93-11.39-42-22-64.74-29.57-34-11.28-67.16-9.12-100.54,2.52-24.81,8.64-46.74,23-70.37,33.91-27.67,12.78-56.14,22.7-87.42,16.12-24.62-5.18-47.35-15.17-69.17-27.57-29.2-16.6-59.74-29.53-93.76-32.33-26.17-2.16-50.41,5.18-74.4,14.36-21.76,8.33-41.44,20.72-62.08,31.2-50.6,25.66-98.78,17.86-145.87-9.15-23.47-13.46-47.77-24.85-74-32-35-9.6-68.23-3.33-101.12,9.55-22,8.62-41.91,21.14-62.86,31.7-50.63,25.52-98.83,17.87-145.91-9.23-23.44-13.5-47.74-24.87-73.94-32-35-9.58-68.25-3.31-101.11,9.63-21.95,8.66-41.91,21.13-62.86,31.68-50,25.16-97.77,18-144.45-8.41-20.49-11.61-41.24-22.52-63.86-29.35-4-1.2-5.34-4.25-6.94-7.2-16-29.6-30.8-59.82-43-91.25-3.74-9.68-3.78-10,6.91-9.12,24.35,2,46.94,10.06,68.52,21,21.16,10.77,41.75,22.52,64.11,31,45.06,17,88.28,11.38,130.55-8.78,18.27-8.72,36-18.5,54.15-27.58,45.58-22.86,90.23-18.5,134.19,4.85,21.19,11.26,42.12,22.91,64.72,31.47,45.06,17.08,88.14,11.12,130.65-8.53,21.32-9.86,41.33-22.19,62.9-31.66,43.58-19.14,84.91-12.23,125.41,8.73,21.31,11,42.13,22.9,64.74,31.47,45.08,17.08,88.13,11,130.7-8.45,19.27-8.79,37.26-19.93,56.43-29,42.6-20.06,84-17.58,125.53,2.89,20.78,10.24,40.75,22,62.12,31.18,51.56,22.2,100.75,14.91,149.06-9.59,16-8.11,31.55-17,47.8-24.74,42.33-20.12,83.51-17,124.73,3.15,20.77,10.18,40.67,22,62,31.14,51.54,22.12,100.81,15.29,149-9.64,23.92-12.36,47-26.53,73.31-33.61,10.92-2.94,22-5.34,33.38-5.58,5.26-.11,5.78,1.59,4,6.12a826.19,826.19,0,0,1-45.24,96c-1.21,2.2-2.27,4.63-5.23,5.45-28,7.7-52.13,23.73-78,36.11C2483,1796.75,2460.78,1804.24,2435.81,1804.92Z" transform="translate(-1.89 -0.16)"/><path class="cls-2" d="M779.77,1792.71c6.78-.43,10.85,3.26,15.25,5.77,30.39,17.35,62,31.27,97.29,34.86,24.34,2.47,47-4.39,69.62-12.16,24.24-8.34,45.2-23.29,68.48-33.48,24.62-10.78,49.92-19.7,77.36-15.49,25.42,3.91,49,13.62,71.28,26.38,30.39,17.41,62,31.27,97.34,34.8,24,2.41,46.5-4.28,68.79-12,24.46-8.45,45.73-23.44,69.23-33.8,24.57-10.84,49.9-19.63,77.36-15.36,25.41,4,49,13.72,71.19,26.47,30.13,17.27,61.5,30.89,96.47,34.59,24.35,2.57,47.06-4.21,69.63-11.94,24.51-8.39,45.69-23.57,69.23-33.86,24.61-10.75,49.91-19.52,77.4-15.21,25.14,3.93,48.41,13.58,70.42,26.11,30.41,17.31,62,31.27,97.23,34.91,24.35,2.52,47-4.29,69.63-12,24.25-8.33,45.23-23.28,68.53-33.5,24.61-10.79,49.89-19.73,77.33-15.57,25.43,3.85,49,13.59,71.29,26.34,30.38,17.38,62,31.25,97.3,34.82,24,2.43,46.55-4.12,68.79-12,16.95-6,32.79-14.31,48.34-23.26,3.88-2.24,7.63-5.12,12.43-5.59,1.87,3.45-.89,5.24-2.12,7.13a1123.77,1123.77,0,0,1-96.1,126.67,16.05,16.05,0,0,1-11.83,6c-34.26,2.67-64.22-10.18-93.25-25.85-18.86-10.19-37.92-19.66-58.14-27-38.66-13.92-76.27-10.19-113.69,4.65-19.45,7.72-37.53,18-55.72,28.13-54.56,30.27-107.33,23.83-159-7.18-17.42-10.45-35.86-18.58-54.95-25.47-38.87-14-76.72-10.44-114.47,4.73-20,8-38.56,18.62-57.36,28.77-49.92,27-98.79,24.17-147.44-3.07-20.7-11.59-41.7-22.47-64.19-30.43-38.91-13.78-76.75-10.5-114.52,4.56-21.87,8.72-41.85,21-62.7,31.57-48.18,24.51-95.11,20.25-141.3-5-21.32-11.66-42.65-23-65.67-31.24-42.53-15.17-83.09-9.11-123.25,8.65-23,10.18-43.88,24.73-67.65,33.42-20.06,7.34-40.32,12.81-62,10.7-4.35-.42-7.58-1.72-10.48-5C844.29,1885,810.3,1840.69,779.77,1792.71Z" transform="translate(-1.89 -0.16)"/><path class="cls-5" d="M912.6,1961.71c29.91-3.89,56-13.38,80.69-26.42,16.93-8.94,33.68-18.06,51.36-25.56,41.68-17.71,81.11-9.93,119.79,9.24,18.15,9,35.57,19.32,54.14,27.64,49.67,22.24,98,18.28,145.92-5.08,18.25-8.89,35.73-19.19,54.08-27.94,48-22.92,93.61-15,138,9.77,22.06,12.34,44.55,23.43,68.63,31.4,39.86,13.18,77.64,6.12,115-9.69,21.42-9,41-21.65,62-31.48,44.63-20.86,87.7-16.52,130.26,5.71,20.28,10.59,40.21,21.78,61.51,30.48,47.45,19.39,92.93,13.2,137.84-8.18,18.59-8.85,36.16-19.56,54.84-28.27,44.42-20.72,87.23-16.08,129.46,5.94,22.85,11.91,45,25.25,69.77,33.2a289.51,289.51,0,0,0,38.89,9.14c-.77,4.06-3.71,5.78-5.83,8-19.85,20.43-40,40.49-60.82,60-4.25,4-7,3.86-11.88,1a280.51,280.51,0,0,0-64.7-27.1c-37.58-10.63-72.79-2.5-107.47,12.07-23.56,9.9-44.55,25-68.63,33.8-19.43,7.14-39.13,13.53-60.12,11.33-26.93-2.83-51.71-12.72-75.1-25.95-21-11.88-42.59-22.14-65.68-29.38-32-10-63.26-7.83-94.78,2.65-27.75,9.23-51.89,25.63-78.37,37.26-22.17,9.74-45.06,17.81-69.74,15.39-26.94-2.63-51.63-12.8-75.11-25.88-20-11.15-40.51-21-62.32-28.36-37.16-12.57-72.91-8.37-108.73,5.41-23.68,9.11-44.58,23.55-67.76,33.46-22.54,9.62-45.61,18-70.62,15.27-29.33-3.15-55.81-14.94-81.13-29.5a290.45,290.45,0,0,0-64.63-27.34c-34.25-9.88-67.13-4.49-99.49,8.22a287.41,287.41,0,0,0-40.65,19.6c-2.56,1.51-4.77,2.94-7.74.2C959.59,2009.69,936.6,1986.74,912.6,1961.71Z" transform="translate(-1.89 -0.16)"/><path class="cls-2" d="M2330.19,2055.27l-55.09,47.18c-.89.75-1.9,1.36-2.71,2.19-14.61,14.85-31.49,22.79-53,25.3-32.28,3.79-60.47,20.32-88.65,35.88-21.17,11.68-43.71,20.24-68,22.67-28.77,2.88-54.8-7.08-80.08-19.15-18.27-8.72-35.55-19.41-54.15-27.59-49.09-21.59-97.23-18.7-144.68,4.88-18.4,9.14-36.49,18.92-55,27.93-47.26,23.06-92.76,15.77-137-8.75-23.53-13-47.27-25.37-73.29-33-30.88-9-60.89-6.88-91.27,2.88-28.67,9.2-53.39,26.28-80.67,38.12-23.33,10.12-47.38,18-73.25,14.48-25.56-3.44-49.23-13.07-71.51-25.78-33-18.82-67.06-34-105.7-35.9-2.92-.14-4.89-1.66-6.86-3.33q-37.89-32-75.67-64.14c-1.77-1.51-7.11-3.31-1-6.55,22.39-11.8,45.55-21.46,70.94-24.33,28.51-3.23,54.27,6.57,79.31,18.29,21.46,10.05,41.67,22.5,63.81,31.37,44.52,17.85,87.86,14.51,130.5-5.26,20.73-9.62,40.78-20.69,61.33-30.71,46.6-22.73,91.6-15.78,135.39,8.18,23.12,12.64,46.36,24.69,71.67,32.76,36.71,11.7,71.82,7.13,106.84-6.56,21.41-8.38,41-20.21,61.25-30.75,49-25.52,96.94-21.62,144.22,4.67,23,12.81,46.4,24.64,71.74,32.7,36.45,11.61,71.29,7,106-6.39,23.89-9.18,45.41-23,68.35-34C2235.1,2018.07,2282.84,2027,2330.19,2055.27Z" transform="translate(-1.89 -0.16)"/><path class="cls-5" d="M1162.23,2174.52c17.86,7.66,33.92,18.86,51.91,26.34,29.58,12.3,59.81,21.08,92.19,15.61,29.13-4.92,56-16.38,81.61-30.91,23.81-13.51,48.51-24.44,75.92-28.76,22.74-3.57,43.68,2.54,64.54,9.88,24.74,8.7,46.08,24.39,70.19,34.44,29.88,12.47,60.45,21,93.08,15.1,28.76-5.21,55.38-16.52,80.69-31,23.51-13.5,48.09-24,75.18-28.35,22.73-3.63,43.7,2.44,64.53,9.86,24.41,8.68,45.6,24,69.36,34.06,30.06,12.72,60.9,21.42,93.87,15.5,28.78-5.17,55.37-16.55,80.7-31,6.78-3.87,13.91-7.15,20.88-10.7,1.92-.65,2.31.28,2,1.94-58.69,41.16-119.27,79.35-181.12,115.6-9.51,5.58-16.33,5.82-25.75.17-28.44-17.06-58.4-30.53-91.62-35.92-27.68-4.49-53.5,2-79.12,11-24.47,8.63-45.9,23.47-69.41,34.06-17.55,7.91-35.8,13.78-54.91,15.69-21.28,2.12-41.22-4.67-60.85-12-23.73-8.84-44.42-23.86-67.78-33.5-26.25-10.83-53.1-19.28-81.84-16.39-29.19,3-56.18,13.47-82,27.15-8.71,4.62-17.37,9.32-25.91,14.23-3.47,2-6.2,1.64-9.62-.33-64.64-37.22-127.68-77-188.74-119.82C1159.91,2174.79,1160.29,2173.85,1162.23,2174.52Z" transform="translate(-1.89 -0.16)"/><path class="cls-2" d="M984,1064.8c45.64,0,91.29.12,136.92-.14,6.14,0,8.48.89,8.23,7.82-.6,17.13,0,34.31-.32,51.47-.09,4.62,1.16,5.78,5.69,5.78q77.19-.07,154.37.32c5.08,0,6.26-1.57,6.19-6.36-.25-17.16.14-34.33-.23-51.48-.13-5.82,1.67-7.24,7.36-7.23q138.67.27,277.33,0c6,0,7.28,1.9,7.17,7.44-.33,16.28.14,32.58-.25,48.86-.16,6.39.93,8.93,8.32,8.86,50-.48,100-.5,150-.36,5.89,0,8-1.19,7.83-7.53-.47-16.86,0-33.74-.26-50.61-.07-4.88.54-7,6.4-7q139.54.31,279.08,0c5,0,6.42,1.34,6.34,6.31-.28,17.44,0,34.9-.22,52.35-.08,4.81,1.11,6.39,6.18,6.36q76.74-.37,153.49-.18c5.7,0,6.66-1.93,6.57-7-.29-17.16.07-34.33-.22-51.48-.08-5,.75-6.94,6.5-6.92q139.1.32,278.2,0c5.42,0,6.86,1.52,6.75,6.86-.35,16.28.25,32.59-.3,48.86-.24,7.28,1.15,9.67,9.21,9.61,55.52-.45,111-.1,166.57-.41,7.32,0,10.08,1.18,9.69,9.3-.75,15.78-.2,15.81-16,15.81-61.92,0-123.84-.13-185.76.17-7.39,0-9.16-2.06-8.91-9.21.57-16.27,0-32.57.29-48.85.1-5.32-.81-7.45-6.93-7.43q-113.8.35-227.62,0c-5.65,0-7.29,1.37-7.15,7.13.41,17.15-.08,34.32.28,51.48.11,5.35-1.3,6.84-6.72,6.84q-101.16,0-202.32.49c-6,0-7.24-1.87-7.13-7.43.35-17.16,0-34.33.23-51.48.08-4.94-1.32-6.36-6.32-6.35q-114.25.24-228.49,0c-5.45,0-6.88,1.53-6.78,6.85.33,17.15-.15,34.32.27,51.47.15,5.94-1.81,7.23-7.37,7.23q-100.73,0-201.45.45c-5.67,0-7.41-1.37-7.27-7.17.38-17.15-.09-34.32.27-51.47.11-5.35-1.29-6.78-6.71-6.77q-114.25.28-228.49,0c-5.93,0-6.46,2.23-6.39,7.06.23,17.16-.11,34.32.21,51.48.1,5.24-1.12,6.92-6.68,6.89q-101.17-.51-202.33-.43c-5.89,0-7.27-1.85-7.15-7.47.36-16.86-.07-33.74.25-50.6.1-5.38-.83-7.54-7-7.52q-113.81.33-227.62,0c-6.08,0-7.19,2-7.09,7.47.3,16.86-.13,33.74.24,50.6.12,5.74-1.49,7.37-7.29,7.35q-98.11-.3-196.22,0c-5.09,0-7-1-7-6.63,0-18.66-.3-18.66,18.39-18.66,52,0,104.08-.28,156.11.26,9.44.09,11.35-2.73,10.94-11.44-.73-15.38.12-30.83-.36-46.23-.2-6.27,1.78-7.59,7.75-7.56C891.59,1064.91,937.81,1064.8,984,1064.8Z" transform="translate(-1.89 -0.16)"/><path class="cls-2" d="M2126.68,1192.81c-45.93,0-91.87-.13-137.8.15-6.33,0-8.57-1.23-8.36-8,.52-17.14.06-34.31.25-51.47,0-4.3-.8-5.9-5.68-5.88q-76.75.33-153.5,0c-5.33,0-6,1.81-6,6.43.25,17.16-.09,34.33.21,51.49.09,5.4-1,7.54-7.07,7.55q-139.11.12-278.22.85c-5.71,0-7.42-1.43-7.29-7.21.37-17.45,0-34.91.24-52.36.08-5-1.42-6.32-6.36-6.3q-75.89.27-151.76,0c-6.13,0-7.17,2.07-7.07,7.48.29,17.16-.07,34.33.21,51.48.09,5.16-1,7-6.67,7q-139.54-.7-279.09-.88c-5.54,0-6.75-1.82-6.65-7,.32-16.86-.13-33.74.25-50.61.13-5.81-1-7.88-7.42-7.84q-75.45.43-150.89,0c-5.61,0-7.49,1.2-7.36,7.1.4,17.15-.08,34.32.28,51.48.11,5.38-1.35,6.78-6.75,6.77q-117.32-.27-234.62,0c-6.06,0-7-2-7-7.42.12-17.64-.09-17.64,17.58-17.64,66,0,132-.1,198,.17,6.55,0,8.24-1.54,8.05-8.07-.52-16.85,0-33.74-.3-50.6-.11-5.32,1.29-6.88,6.74-6.87q101.18.29,202.35,0c5,0,6.42,1.43,6.34,6.36-.27,17.45.12,34.9-.24,52.35-.11,5.41,1.41,6.77,6.77,6.77q114.26,0,228.51.53c6.16,0,7-2.12,6.92-7.39-.28-17.15.06-34.32-.21-51.48-.08-4.91,1.3-6.41,6.32-6.4q101.61.24,203.22,0c5.24,0,6.23,1.9,6.17,6.59-.22,17.45.07,34.9-.19,52.35-.08,4.88,1.27,6.31,6.27,6.29q114.69-.49,229.38-.5c4.86,0,6.37-1.22,6.29-6.22-.31-17.45.07-34.91-.24-52.36-.09-5.32,1.46-6.9,6.85-6.88q101.16.26,202.34,0c5.76,0,6.63,2.12,6.55,7.13-.27,16.87.16,33.75-.25,50.61-.14,5.86,1.06,7.82,7.42,7.78q113.82-.55,227.63-.4c6,0,7.26-1.86,7.16-7.37-.31-16.87,0-33.74-.2-50.61-.08-5.22.62-7.7,7-7.68q100.74.38,201.47,0c6.13,0,7.07,2.21,7,7.55-.3,16.29.46,32.61-.35,48.86-.41,8.26,2.56,9.21,9.72,9.18,68.32-.26,136.64,0,205-.33,7.21,0,9.32,1.7,9.06,9-.56,15.89-.14,15.9-15.77,15.9-74.72,0-149.43-.09-224.15.15-6.63,0-8.81-1.38-8.57-8.39.57-16.56,0-33.15.29-49.73.09-5-.81-7.09-6.54-7.07q-76.32.34-152.63,0c-5.84,0-6.51,2.08-6.43,7,.26,16.87-.2,33.75.26,50.61.17,6.2-1.65,7.62-7.68,7.59-46.23-.27-92.45-.15-138.68-.15Z" transform="translate(-1.89 -0.16)"/><path class="cls-2" d="M1384.19,2315.86c29.1-16.82,57.86-30.32,90.56-31.86,21.84-1,42.16,6.05,62.13,14.22,20.95,8.57,39.53,21.75,60.4,30.49,30.92,12.94,62.47,21.87,96.3,15.27,28.92-5.64,55.54-17.37,81.09-31.93,24.79-14.13,50.72-25.28,79.7-27.72,23-1.94,44.1,4.94,64.86,13.32a187.46,187.46,0,0,1,35.13,18.3c-30.06,16.64-59.82,31.91-90.17,46-40.19,18.58-81.22,34.8-123.81,47.38-50.4,14.9-99.8,13-149.6-2.18C1518.75,2385.16,1451.78,2352,1384.19,2315.86Z" transform="translate(-1.89 -0.16)"/><path class="cls-6" d="M1162.23,2174.52l-2,1.93-8.43-4.75C1157.25,2170.86,1159.83,2172.31,1162.23,2174.52Z" transform="translate(-1.89 -0.16)"/><path class="cls-6" d="M2178.86,2176.45l-2-1.94a8,8,0,0,1,7-2.81C2183.51,2174.93,2180.85,2175.36,2178.86,2176.45Z" transform="translate(-1.89 -0.16)"/><path class="cls-3" d="M2833.1,2492.24c3,2.18,1.45,5.36,1.45,8,.1,98.61,0,197.21.26,295.82,0,7.38-2.09,9-9.18,9q-1156.08-.24-2312.16-.07c-5.93,0-9.23-.17-9.21-8,.31-99.18.19-198.37.28-297.56,0-2.36-1.45-5.27,1.46-7.13,1,1.22.9,2.68.9,4.14q0,148.32-.1,296.65c-.09,1.16,1.64-.2.53.14-.29.1-.46-.14-.46-.72q.27-145.71,0-291.44c0-6.47,2.05-9.14,8.46-8.62,2.89.23,5.81,0,8.72,0H2815.14c20.49,0,16.93-1.29,17,17.37q.17,137.88.05,275.74c0,2.57-.1,5.13,0,6.86v-111q0-89.88.05-179.76C2832.26,2498.5,2831.29,2495.22,2833.1,2492.24Z" transform="translate(-1.89 -0.16)"/><path class="cls-3" d="M87.44,2402.05H585.6c-6.32,3.94-11,6.92-15.73,9.79-28.77,17.4-57.42,35-86.44,52-6.16,3.61-7.87,7.64-7.85,14.42.23,76.17.06,152.35.29,228.53,0,6.74-1.55,8.78-8.6,8.77q-185.7-.35-371.39-.18c-2.2,0-4.4-.22-8.9-.47l199.5-156.62Z" transform="translate(-1.89 -0.16)"/><path class="cls-3" d="M2753.27,2401.78H3250c-2.1,4.17-5.69,6-8.62,8.31q-91,71.53-182.27,142.81c-5.62,4.38-5.74,6.29.07,10.82q93.74,73,187,146.46c1.34,1.05,2.58,2.22,3.85,3.31-1.63,3.26-4.29,1.82-6.27,1.82q-186.14.12-372.27.27c-7.6,0-8.29-2.86-8.28-9.08.16-76.47,0-152.93.26-229.4,0-6.34-1.89-9.79-7.34-13-31.2-18.41-62.16-37.23-93.18-55.93C2760.37,2406.58,2757.85,2404.79,2753.27,2401.78Z" transform="translate(-1.89 -0.16)"/><path class="cls-7" d="M2833.1,2492.24v308.69l-1.8.07v-8.68c0-95.68-.1-191.37.18-287.05,0-8.39-1.48-11.35-10.81-11.35q-1151.11.38-2302.24,0c-9.34,0-10.84,3-10.81,11.35q.4,143.08.17,286.18v9.44H506V2492.24c3-1.59,6.28-.77,9.41-.77q1154.15-.07,2308.28,0C2826.82,2491.47,2830.07,2490.65,2833.1,2492.24Z" transform="translate(-1.89 -0.16)"/><path class="cls-8" d="M2793.55,2462.6c-24.59,0-49.19,0-73.78.06-3.5,0-5.29-.73-5.24-4.77.18-14.44.07-28.89.07-45l79.59,47.92Z" transform="translate(-1.89 -0.16)"/><path class="cls-8" d="M624.5,2412.81c0,16.1-.11,30.52.07,44.94,0,3.89-1.43,4.93-5.1,4.92-24.62-.12-49.24-.06-74.67-1.76Z" transform="translate(-1.89 -0.16)"/><path d="M2370.64,2656.4c5.28-26.71,10.81-53.37,15.72-80.15,1.53-8.41,4.4-12.69,13.88-11.32,7.12,1,14.5.39,21.76.13,4.31-.15,6.12.93,6.1,5.75q-.24,77.61,0,155.22c0,3.82-.63,5.51-5.09,5.78-20,1.16-20,1.33-20-18.83V2599.8c-4.87,10.93-5.41,21.51-7.51,31.61-6.44,30.89-12.87,61.79-18.27,92.86-1.69,9.67-7.61,6.8-13.08,7.46-6.46.78-6.6-3.57-7.45-8q-11.21-58.87-22.64-117.72c-.15-.76-.53-1.48-2.27-2.21v8.77c0,37.2-.15,74.41.15,111.61.05,6.22-1.81,7.78-7.79,7.64-13.13-.32-13.14,0-13.14-13.38v-57.55c0-29.36.17-58.72-.13-88.07-.06-6,1.25-8.26,7.58-7.82a178.7,178.7,0,0,0,24.38,0c5.54-.37,7.72,1.85,8.65,6.86q8,43.11,16.13,86.18C2369.8,2659.69,2369.81,2657.29,2370.64,2656.4Z" transform="translate(-1.89 -0.16)"/><path d="M867.31,2602.67c-4.32,23-8.57,46.1-13,69.13-3.37,17.61-7.39,35.11-10.19,52.8-1.19,7.51-5.27,7.08-10.74,7.23-5.65.16-8.73-.75-9.92-7.27-6.86-37.58-14.2-75.07-21.41-112.59-.25-1.33-.76-2.62-1.54-5.22-2.64,3.7-1.77,6.81-1.78,9.6-.06,35.45-.25,70.9.14,106.35.08,7.06-1.35,9.57-8.86,9.16-12.08-.66-12.11-.15-12.11-12.66,0-48.52.13-97-.15-145.57,0-6.64,1.39-9.27,8.47-8.64a122.09,122.09,0,0,0,22.62,0c7.14-.71,8.62,2.68,9.69,8.7,4.93,27.63,10.3,55.18,15.52,82.76,1.07,2.19,2.12,2.43,3.12,0,5.78-28.6,11.73-57.17,17.17-85.84.87-4.55,2.44-5.59,6.61-5.48q14.35.36,28.7,0c4.19-.11,5.35,1.26,5.34,5.44q-.19,77.89,0,155.79c0,4-.87,5.76-5.2,5.45-6.34-.44-12.71-.4-19.07-.56-1.89-2.95-.91-6.23-.92-9.34-.08-37.18,0-74.35-.18-111.53C869.64,2607.81,872.11,2603.93,867.31,2602.67Z" transform="translate(-1.89 -0.16)"/><path d="M2094.23,2625.7c-4.84,31.15-9.79,62.29-14.47,93.47-1.87,12.46-1.59,12.5-14.56,12.5a19.23,19.23,0,0,0-3.48,0c-7.26,1.4-9.06-2.39-10-8.87-3.93-26.35-8.38-52.63-12.71-78.93-4-24.3-8-48.61-12.32-72.84-.86-4.79,0-5.86,4.76-6,19.53-.73,19.46-.88,22.24,18.36q5.93,40.88,12,81.72c.42,2.83,1.27,5.59,2.45,10.63,4-25,7.6-47.75,11.2-70.53,1.77-11.16,3.67-22.31,5.14-33.51.65-5,2.56-6.7,7.79-6.7,16,0,16.18-.3,18.85,15.49,4.78,28.28,9.3,56.59,13.88,84.9.36,2.24.12,4.62,2.84,6.94,3.63-23.75,7.19-46.81,10.65-69.88,1.42-9.45,2.83-18.92,3.84-28.42.75-7,3.55-9.65,11-9.1,11,.81,10.85.16,9.1,11.15-6.83,42.94-13.48,85.9-20.25,128.84-.81,5.15-3.05,10.31-2.71,15.33.76,10.93-4.88,12-13.71,11.59-12.85-.62-12.88-.16-14.94-13L2096,2625.64Z" transform="translate(-1.89 -0.16)"/><path d="M1706.42,2632.12c-4.74,31.23-9.55,62.46-14.13,93.73-.62,4.27-2.16,5.76-6.58,5.94-18.76.75-18.76.91-21.63-16.18q-12-71.59-24.06-143.18c-1-5.59.39-7.49,6.46-7.45,17.69.11,17.68-.17,20.18,17q5.94,40.86,11.95,81.72a16.8,16.8,0,0,0,3.54,8.18c1.95-12.15,4-24.3,5.86-36.47,3.16-20.33,6.38-40.64,9.27-61,.94-6.59,2.81-11,10.68-9.33a16.2,16.2,0,0,0,6.09,0c6.27-1.11,8.39,1.58,9.33,7.7,5.21,33.81,10.86,67.54,17.54,101.45q4.38-28.79,8.76-57.55c2.31-15.2,4.79-30.38,6.74-45.62.54-4.16,1.29-5.93,6-6.06,15.55-.44,15.46-.68,13,14.43-7.94,48.94-15.93,97.87-23.52,146.86-.73,4.72-2.33,5.38-6.39,5.47-18.91.42-18.94.53-22-18.09q-7.12-43.34-14.15-86.68C1704.77,2626.61,1708.35,2631,1706.42,2632.12Z" transform="translate(-1.89 -0.16)"/><path d="M1904.05,2644.83c26.58,12.09,27,58.63,9.4,77.19a30.91,30.91,0,0,1-22.66,9.52c-16,.17-32-.1-48,.25-5.16.11-6.15-1.77-6.13-6.48q.21-76.76,0-153.52c0-5.41,1.46-6.91,6.81-6.78,14.81.37,29.66.63,44.46,0,16.13-.65,25.8,7.47,31,21.59,5.28,14.35,5.38,28.9-.75,43.27C1915.43,2636.36,1910.19,2640.33,1904.05,2644.83Z" transform="translate(-1.89 -0.16)"/><path d="M1160.29,2648.77c0-25.56.21-51.12-.15-76.68-.09-5.94,1.77-7.24,7.28-7.08,12.76.38,25.54.06,38.32.14,23.5.14,31.78,5.64,38.19,28.46,5.48,19.5,6.6,40.06-7.58,56.14-7.74,8.77-6.31,15.55-3.82,24.37,4.86,17.26,9.14,34.69,14.17,51.89,1.57,5.39-.42,5.61-4.74,5.74-21.54.66-21.43.74-26.45-20.39-3.21-13.51-6.85-26.91-10.15-40.4-2.46-10-10.33-4.59-15.72-5.3-5.9-.77-3.78,4.66-3.81,7.56-.2,17.13-.24,34.27,0,51.41.06,4.84-.52,7.17-6.41,7.22-19.13.15-19.13.44-19.13-18.6Z" transform="translate(-1.89 -0.16)"/><path d="M650.3,2714.6c-3,1.39-3.81,4-5.34,6.08-13.15,17.59-35.86,18.16-49.87,1.13-10.52-12.79-15.21-28.3-16.94-44.1-3-27.48-3.39-55.13,6.41-81.73,4.06-11,9.59-21.27,19.55-28.19,16.11-11.22,37.46-5.83,48.83,12.06,6.69,10.51,9.71,22.2,11.49,34.36.5,3.41.23,5.8-3.94,5.89a12,12,0,0,0-2.57.44c-14.76,3.61-14.74,3.61-19.1-10.29a43.06,43.06,0,0,0-2.68-7.33c-6.33-11.88-19.1-12.29-26.18-.83-4.87,7.87-6.26,16.85-7.07,25.78-1.86,20.56-2.88,41.19,4.66,61,4.16,10.92,11.91,15.46,20.61,12.8,7.79-2.37,15.4-17,13.32-25.3-1-4-4.08-2.46-6.34-2.54-14-.54-14-.48-14-14.27,0-17.16,0-17.16,17-17.16,7,0,14,.2,20.92-.07,4.22-.17,6.18.61,6.14,5.57-.24,26.17-.11,52.35-.13,78.52,0,2.53.64,5.57-3.63,5.23-3.25-.26-7.16,1.29-8.28-3.86C652.18,2723.58,652.87,2719,650.3,2714.6Z" transform="translate(-1.89 -0.16)"/><path d="M1586.12,2648.86c0,25-.16,50,.13,75,.06,5.69-.82,8.09-7.35,8-17.52-.28-17.53.06-17.53-17.7,0-15.12-.15-30.24.1-45.36.07-4.45-1.07-6.23-5.79-6-8.94.5-20.31-2.74-26.18,1.63-5.69,4.23-1.55,16.26-1.78,24.84-.33,11.92-.24,23.85,0,35.77.09,4.48-.54,6.65-6,6.77-18.26.4-18.25.66-18.25-17.87,0-46.81.15-93.62-.17-140.43,0-6.91,1.84-8.75,8.63-8.56,15.67.44,15.68.09,15.68,15.42,0,14.53.13,29.07-.07,43.61-.06,4.38,1.09,6.35,5.84,6.1,8.95-.46,20.35,2.79,26.17-1.58,5.59-4.2,1.49-16.27,1.73-24.86.31-11,.24-22.1,0-33.15-.09-4.13,1.18-5.31,5.37-5.49,19.47-.87,19.46-1,19.46,18.41Z" transform="translate(-1.89 -0.16)"/><path d="M1015.17,2648.42c0-25.28.21-50.57-.15-75.85-.09-6.25,1.83-7.67,7.79-7.58,16.71.24,16.71,0,16.71,16.86,0,14,.19,27.91-.1,41.85-.1,4.9,1.32,6.69,6.35,6.42a210.78,210.78,0,0,1,21.77,0c4.8.25,5.81-1.7,5.76-6-.19-17.44.16-34.88-.22-52.31-.11-5.49,1.58-6.73,6.83-6.76,17.9-.09,17.9-.31,17.9,17.38,0,47.08-.13,94.16.15,141.24,0,6.34-1.27,8.41-8,8.24-16.73-.44-16.74-.06-16.74-16.61,0-15.4-.2-30.8.11-46.2.1-5-1.56-6.49-6.4-6.24a163.76,163.76,0,0,1-20.9,0c-5.72-.42-6.69,1.92-6.61,7,.27,18.31,0,36.62.2,54.92.07,4.88-.5,7.14-6.39,7.15-18.06,0-18.06.34-18.06-18Z" transform="translate(-1.89 -0.16)"/><path d="M685.45,2647.76c0-25.29.15-50.59-.12-75.88-.06-5.3,1.26-7,6.73-6.87,21.21.32,42.43.25,63.64,0,4.91-.05,6.74,1.34,6.42,6.39a165.85,165.85,0,0,0,0,19.18c.24,4.63-1.44,6-6,5.93-12.78-.24-25.58.14-38.36-.19-5.43-.14-8,1-7.49,7.13.68,8.63-2.68,19.95,1.64,25.27,4.56,5.61,16.31,1.58,24.9,1.77,14,.3,14,.08,14,14.33,0,17,0,17-17.21,17-5.81,0-11.63.15-17.43-.06-3.81-.13-6,.58-5.81,5.15.41,10.13-3.13,22.71,1.65,29.68,4.39,6.4,17.83,1.38,27.26,2,7.2.47,16.78-2.29,21,1.36,5,4.3.74,14.25,1.84,21.6,1.29,8.71-2.2,10.53-10.4,10.27-19.74-.64-39.52-.44-59.28-.07-5.83.11-7.19-1.71-7.13-7.29C685.61,2698.94,685.45,2673.35,685.45,2647.76Z" transform="translate(-1.89 -0.16)"/><path d="M2595.29,2660.39c-12.58,20-19,40.3-16.06,62.82.85,6.62-1.16,8.9-8.25,8.65-15.85-.54-15.87-.12-15.87-15.94,0-47.11.17-94.22-.17-141.33-.06-7.41,1.35-10.06,9.36-9.67,14.86.72,14.89.18,14.89,15.22v59.07l1.64.58c4.82-10.82,9.68-21.61,14.44-32.45,5.13-11.67,10.56-23.23,15.05-35.14,2.13-5.65,4.95-7.77,10.82-7.17,4.83.5,9.75.1,15.87.1-7.85,18.38-14.9,35.76-22.77,52.76-2.2,4.75-2.12,8.59-.72,13.2q14.39,47.37,28.51,94.82c.49,1.61.7,3.31,1.21,5.76-8,0-15.53-.11-23,0-4.56.09-4.65-3.17-5.57-6.28C2608.37,2704.05,2602,2682.72,2595.29,2660.39Z" transform="translate(-1.89 -0.16)"/><path d="M2449,2627.83c0-18.32.23-36.65-.14-55-.11-5.87,1.11-8,7.51-7.91,19.39.23,19.39-.08,19.39,19.41,0,27.33-.05,54.67.05,82a162.89,162.89,0,0,0,.93,17.4c1.41,12.57,7.28,18.6,17.63,18.65,10.54,0,16.39-5.45,18.25-18.05a122.94,122.94,0,0,0,.84-17.39c.07-31.12.23-62.23-.12-93.35-.08-6.69,1.48-9.67,8.5-8.56a35.42,35.42,0,0,0,7.84,0c3.48-.23,5.21.62,5.13,4.72-.8,42.14,2.35,84.4-1.93,126.4-3.76,36.94-35.77,43.63-59.39,34.39-15.05-5.88-20.05-20-22.56-34.87a71.43,71.43,0,0,1-1.36-11.23c-.13-18.9-.06-37.8-.06-56.69Z" transform="translate(-1.89 -0.16)"/><path d="M1003.05,2730.75a7.77,7.77,0,0,1-1.39.58c-25.6,2.29-26.55,1.74-29.93-23.87-1-7.81-3.15-12.72-12.19-10.68a16.15,16.15,0,0,1-3.48,0c-22.27,0-22.27,0-25.94,22.46-1.89,11.59-9.73,16.18-21,12.33-4.41-1.51-2-4.92-1.6-7.22,2.73-14.51,5.77-29,8.77-43.44,7.4-35.7,15-71.36,22.11-107.12,1.29-6.51,3.45-9.71,10.49-8.77,6.84.92,15.63-2.85,20.14,1.54,4,3.85,3.42,12.39,4.74,18.89Q988.44,2658.17,1003.05,2730.75Z" transform="translate(-1.89 -0.16)"/><path d="M2245.22,2731.67c-13.66,0-13.66,0-16.22-13.73-3.94-21.13-3.94-21.13-25.29-21.13-13.58,0-13.55,0-16.22,13.71-1,5.11-2.61,10.14-3.12,15.28s-2.86,5.93-7.39,6c-15.45.17-15.65.31-12.6-14.71,10-49.05,20.13-98.06,30-147.12.74-3.64,2.15-5.1,5.65-4.81a6.32,6.32,0,0,0,.87,0c24.32-1.27,24-1.2,28.62,22.59,8.66,44.61,17.74,89.14,26.67,133.7C2258.27,2731.68,2258.31,2731.67,2245.22,2731.67Z" transform="translate(-1.89 -0.16)"/><path d="M1477.22,2731.67a59.81,59.81,0,0,0-7,0c-4.72.56-7.17-1.12-6.87-6.1a6.47,6.47,0,0,0-.3-1.71c-1.89-8.74-1-20.92-6.38-25.36-6.8-5.58-18.91-1.11-28.7-1.78-4-.27-5.59,1.15-6.18,5.2-1.08,7.42-3.22,14.7-4.19,22.13-.79,6.07-3.31,7.94-9.52,7.75-14.36-.45-14,0-11.07-14.19q15.15-72.22,29.77-144.55c1.28-6.33,3.77-8.26,10.23-8.15,20.63.38,20.75.06,24.89,20.44q13.92,68.49,27.64,137C1491.44,2731.67,1491.42,2731.67,1477.22,2731.67Z" transform="translate(-1.89 -0.16)"/><path d="M1931.75,2731.67c5.21-26.09,10.16-51.33,15.33-76.53,5.64-27.51,11.66-54.93,17.11-82.48,1.2-6,3.55-7.79,9.71-7.7,21.77.32,21.38.13,25.61,21.69,9.42,48,19.29,95.87,29.21,145-7.9,0-15.53-.07-23.16,0-3.43,0-4.24-1.77-4.77-4.79-1.45-8.26-3.75-16.39-4.82-24.7-.61-4.77-2.67-5.58-6.76-5.46-7.84.22-15.69.28-23.53,0-4.29-.17-6.08,1.11-6.72,5.59-1.16,8-3.58,15.86-4.58,23.89-.59,4.67-2.48,5.72-6.62,5.52C1942.59,2731.48,1937.41,2731.67,1931.75,2731.67Z" transform="translate(-1.89 -0.16)"/><path d="M1342.3,2565.14c4.65,0,9.31.29,13.94,0,22.33-1.56,33.77,10.32,39.26,34.58,3.36,14.82,2.11,30-3,44.61-4.41,12.75-13.81,25.83-33.2,25-19.93-.89-20,0-20,20.31,0,12.21-.15,24.41.08,36.61.07,4.07-1.08,5.38-5.32,5.6-20.47,1.09-20.46,1.23-20.46-19,0-45.91.17-91.81-.16-137.72-.06-7.49,1.21-11.1,9.64-10.05C1329.44,2565.77,1335.91,2565.13,1342.3,2565.14Z" transform="translate(-1.89 -0.16)"/><path d="M2674.59,2664.27c0-19.77-.14-39.55.09-59.32.06-5.21-.62-8.08-6.95-7.7s-14.6,2.86-18.45-1c-4.23-4.28-1.25-12.67-1.38-19.25-.22-11.82-.06-11.83,11.94-11.83,20,0,40.11.18,60.16-.12,5.27-.08,7.25,1.23,6.82,6.74a120.29,120.29,0,0,0,0,19.17c.47,5.69-1.83,6.6-6.92,6.62-20,.09-20,.27-20,20.48,0,35.19-.17,70.37.16,105.56.06,6.4-1.35,8.43-8.07,8.28-17.42-.4-17.42,0-17.42-17.86Z" transform="translate(-1.89 -0.16)"/><path class="cls-9" d="M2737.84,2647.87c0-25,.18-50-.13-75-.07-6,1.42-8,7.67-7.88,17.25.2,17.25-.1,17.25,17.34,0,47.11-.13,94.22.16,141.32,0,6.49-1.49,8.39-8.13,8.23-16.81-.4-16.82-.05-16.82-16.82Z" transform="translate(-1.89 -0.16)"/><path d="M1814.73,2648.64c0,25.29-.16,50.58.13,75.86.06,5.57-1.28,7.37-7.12,7.33-17.82-.13-17.82.14-17.82-17.35,0-46.8.15-93.6-.17-140.39,0-7,1.26-9.45,8.82-9.16,16.15.62,16.16.15,16.16,16.57Z" transform="translate(-1.89 -0.16)"/><path class="cls-10" d="M1291.46,2648.64c0,25.29-.16,50.57.12,75.86.06,5.55-1.26,7.38-7.11,7.33-17.55-.13-17.55.15-17.55-17.73,0-46.51.18-93-.19-139.51,0-7.5,1.49-10,9.44-9.67,15.27.68,15.29.17,15.29,15.71Z" transform="translate(-1.89 -0.16)"/><path class="cls-11" d="M867.31,2602.67c-.37-1.74-.72-4.07,1.23-4.45,2.41-.47,2.21,2.1,2.24,3.67.12,5.78.1,11.57.09,17.35l-.12,111.94c-2.85-2.63-1.3-6-1.31-9-.13-36.32,0-72.65-.15-109C869.28,2609.68,870.75,2605.65,867.31,2602.67Z" transform="translate(-1.89 -0.16)"/><path class="cls-12" d="M837.2,2656.38c.54,2.35-.19,4.28-1.85,6.25-2.09-2-1.25-4.19-1.27-6.2Z" transform="translate(-1.89 -0.16)"/><path class="cls-13" d="M2370.64,2656.4c.08,2.16,1.2,5.48-1.12,6-2.77.6-2.06-2.47-1.91-4.35Z" transform="translate(-1.89 -0.16)"/><path class="cls-14" d="M1706.42,2632.12c.19-2.28.28-4.58.64-6.83.09-.54,1.33-1.44,1.64-1.29,1.33.61.92,1.87.68,3Z" transform="translate(-1.89 -0.16)"/><path class="cls-15" d="M1874.07,2700.79c-12.31.29-12.31.29-12.31-12.24,0-7.55.09-15.09,0-22.64-.06-3.39.61-5.58,4.68-5.45,6.08.2,12.21-.3,18.26.24,9,.79,14.52,8.36,14.89,19.34.4,11.6-4.72,19.29-14.2,20.67C1881.66,2701.24,1877.83,2700.79,1874.07,2700.79Z" transform="translate(-1.89 -0.16)"/><path class="cls-16" d="M1861.76,2611.9c0-18.11,0-18.11,18-18,12,.06,17.27,5.22,17.65,17.35.41,12.88-5.1,19-17.5,19.35C1861.76,2631.14,1861.76,2631.14,1861.76,2611.9Z" transform="translate(-1.89 -0.16)"/><path class="cls-8" d="M1198.08,2637.22a64.61,64.61,0,0,0-7,0c-4.15.45-5.57-1.14-5.47-5.35.25-10.73.2-21.48,0-32.22-.06-4,1.2-6,5.47-5.57,2.3.23,4.64,0,7,0,20.16.19,30,18.06,19.88,35.8C1213.29,2638.16,1205.62,2637.3,1198.08,2637.22Z" transform="translate(-1.89 -0.16)"/><path class="cls-17" d="M951,2613.56c6.68,16.24,8.69,33.14,12.2,49.69.35,1.63-.06,3.17-1.82,3.22-6.08.16-12.17.15-18.25,0-2.67,0-2.1-2-1.75-3.74Q946.19,2638.17,951,2613.56Z" transform="translate(-1.89 -0.16)"/><path class="cls-17" d="M2208.41,2611.31c3.43,17.46,8.33,34.81,9.48,52.42.38,5.91-10.61,1.64-16.28,2.81-3,.63-6,.14-5-4.41q5.19-25.38,10.3-50.8Z" transform="translate(-1.89 -0.16)"/><path class="cls-17" d="M1439.47,2611.88c6.77,16.58,7.26,32.55,11.34,47.7,1.29,4.79.59,7.2-5.55,7.22-16.74,0-16.61.37-13.22-15.92C1434.61,2638.51,1436.78,2626.06,1439.47,2611.88Z" transform="translate(-1.89 -0.16)"/><path class="cls-18" d="M1978.74,2611.57q4.92,25.33,9.8,50.67c.31,1.64.67,4.09-1.65,4.17a134.06,134.06,0,0,1-19-.32c-2.58-.28-1.24-3.4-.87-5.22q4.92-24.59,10-49.15Z" transform="translate(-1.89 -0.16)"/><path class="cls-8" d="M1349.91,2594.75c8.35,0,16.21.35,19.93,10.11,4.18,11,3.12,21-3.85,30.3-2.91,3.85-21.19,6.17-25.75,4-3-1.38-1.88-3.94-1.9-6q-.19-13.49,0-27C1338.46,2593.2,1336.24,2595,1349.91,2594.75Z" transform="translate(-1.89 -0.16)"/></svg>